# xmcd
#
# Track frame offsets:
#	225
#	15415
#	29810
#	46292
#	60647
#	74410
#	89425
#	105545
#	121515
#	137120
#	152202
#	166702
#	183190
#	196875
#	205710
#	220875
#
# Disc length: 3193 seconds
#
# Revision: 2
# Processed by: cddbd v1.5.1PL0 Copyright (c) Steve Scherf et al.
# Submitted via: dBpowerAMP V4.0
#
DISCID=d70c7610
DTITLE=Various Artist - Today's Most Requested Country Love Songs
DYEAR=1989
DGENRE=Country
TTITLE0=Ricky Van Shelton - Life Turned Her That Way
TTITLE1=Nitty Gritty Dirt Band - Oh What A Love
TTITLE2=Reba McEntire - Love Will Find Its Way To You
TTITLE3=Don Williams - I'll Never Be In Love Again
TTITLE4=Larry Gatlin and The Gatlin Brothers - Love Of A Lifetime
TTITLE5=O'Kanes - One True Love
TTITLE6=Conway Twitty - The Rose
TTITLE7=Willie Nelson - Always On My Mine
TTITLE8=Michael, Martin Murphey - Talkin' To The Wrong Man
TTITLE9=Dwight Yoakum - Little Ways
TTITLE10=Eddie Rabbitt - I Wanna Dance With You
TTITLE11=Michael Johnson - Give Me Wings
TTITLE12=Alabama - Face To Face
TTITLE13=Dan Seals - One Friend
TTITLE14=Judy Rodman - I'll Be Your Baby Tonight
TTITLE15=Exile - I Can't Get Close Enough
EXTD=
EXTT0=
EXTT1=
EXTT2=
EXTT3=
EXTT4=
EXTT5=
EXTT6=
EXTT7=
EXTT8=
EXTT9=
EXTT10=
EXTT11=
EXTT12=
EXTT13=
EXTT14=
EXTT15=
PLAYORDER=
